<svg xmlns="http://www.w3.org/2000/svg" id="Слой_1" viewBox="0 0 85 85"><style>.st0{fill:#69acdf}.st1{fill:#a1c854}.st2{fill:#599f46}.st3{fill:#75b94e}.st4{fill:#f08046}.st5{fill:#fff}</style><path class="st0" d="M90.2 36.1C90.2 16.2 74 0 54.1 0c-3.1 0-6.1.4-9 1.1 5.5 1.4 10.5 4.1 14.7 7.7 1.8.9 3.5 1.9 5.1 3.1C76.3 18 84 30 84 43.8c0 6.7-1.9 13-5.1 18.4 7-6.5 11.3-15.8 11.3-26.1z"/><path class="st1" d="M11.4 25.3C15.7 16.5 23.5 9.7 33 6.8c3.6-2.6 7.6-4.5 12-5.6C42.1.5 39.1.1 36 .1 16.2 0 0 16.2 0 36.1c0 4.7.9 9.3 2.6 13.4V49c0-9.1 3.3-17.4 8.8-23.7z"/><path class="st2" d="M43.8 5.2c5.7 0 11.1 1.3 15.9 3.7-4.2-3.6-9.1-6.3-14.7-7.7-4.4 1.1-8.4 3.1-12 5.6 3.5-1.1 7.1-1.6 10.8-1.6z"/><path class="st3" d="M26.8 73.1c-2.4-1.3-4.7-2.8-6.7-4.6-7.9-4-14.2-10.7-17.5-19C2.9 69.2 18.9 85 38.7 85c8.3 0 15.9-2.8 21.9-7.4-3.9 1.5-8.2 2.3-12.7 2.3-7.8 0-15.1-2.5-21.1-6.8z"/><path class="st2" d="M20.1 68.4C12.5 61.8 7.7 52.1 7.7 41.2c0-5.7 1.3-11.1 3.7-15.9C5.9 31.6 2.6 39.9 2.6 49v.5c3.3 8.3 9.6 15 17.5 18.9z"/><path class="st4" d="M64.9 12c9.1 6.6 15 17.2 15 29.3 0 9.1-3.3 17.3-8.9 23.7-1.8 2.1-3.9 4-6.2 5.6-5.9 4.3-13.2 6.8-21 6.8-6.1 0-11.9-1.5-17-4.2C32.7 77.5 40 80 47.9 80c4.5 0 8.7-.8 12.7-2.3 7.7-2.9 14.2-8.4 18.4-15.4 3.2-5.4 5.1-11.7 5.1-18.4C84 30 76.3 18 64.9 12z"/></svg>